# xmcd
#
# Track frame offsets: 
#        150
#        15633
#        28290
#        44911
#        63771
#        75993
#        91128
#        104232
#        121591
#        137473
#        152662
#        168895
#        185183
#        202519
#
# Disc length: 2889 seconds
#
# Revision: 0
# Processed by: cddbd v1.5.2PL0 Copyright (c) Steve Scherf et al.
# Submitted via: ExactAudioCopyFreeDBPlugin 1.0
#
DISCID=ad0b470e
DTITLE=Exile - Kiss You All Over
DYEAR=2007
DGENRE=Country
TTITLE0=Crazy For Your Love
TTITLE1=Give Me One More Chance
TTITLE2=Hang On To Your Heart
TTITLE3=I Can't Get Close Enough
TTITLE4=I Could Get Used To You
TTITLE5=I Don't Want To Be A Memory
TTITLE6=It'll Be Me
TTITLE7=Just One Kiss
TTITLE8=Kiss You All Over
TTITLE9=Middle Of The Road
TTITLE10=She's A Miracle
TTITLE11=She's Too Good To Be True
TTITLE12=Superlove
TTITLE13=Woke Up In Love
EXTD=
EXTT0=
EXTT1=
EXTT2=
EXTT3=
EXTT4=
EXTT5=
EXTT6=
EXTT7=
EXTT8=
EXTT9=
EXTT10=
EXTT11=
EXTT12=
EXTT13=
PLAYORDER=
